<?xml version="1.0" standalone="no"?>
<!DOCTYPE svg PUBLIC "-//W3C//DTD SVG 1.1//EN" "http://www.w3.org/Graphics/SVG/1.1/DTD/svg11.dtd">
<svg xmlns="http://www.w3.org/2000/svg">
<metadata>Copyright (C) 2019 by original authors @ fontello.com</metadata>
<defs>
<font id="fontello" horiz-adv-x="1000" >
<font-face font-family="fontello" font-weight="400" font-stretch="normal" units-per-em="1000" ascent="850" descent="-150" />
<missing-glyph horiz-adv-x="1000" />
<glyph glyph-name="phone" unicode="&#xe801;" d="M283 484a756 756 0 0 1 234-277c35-24 72-44 108-66 8-5 12-4 18 2 30 27 60 54 91 79a54 54 0 0 0 81 0c57-57 112-114 168-172a60 60 0 0 0 5-75 122 122 0 0 1-11-16 221 221 0 0 0-163-100 437 437 0 0 0-303 68 1056 1056 0 0 0-218 174 1747 1747 0 0 0-174 195 634 634 0 0 0-107 213 378 378 0 0 0 4 200 197 197 0 0 0 76 109c10 7 20 13 30 21a63 63 0 0 0 78-6c57-55 113-109 168-164a56 56 0 0 0 3-85c-25-31-50-60-79-90z" horiz-adv-x="999" />

<glyph glyph-name="promotion_fill" unicode="&#xe802;" d="M536 333v-451h-164v451h-345v-455a28 28 0 0 1 28-28h800a28 28 0 0 1 28 28v455z m-509 267a27 27 0 0 1-27-28v-172a27 27 0 0 1 27-26h345v226z m854 0h-345v-225h345a27 27 0 0 1 26 25v172a27 27 0 0 1-26 28z m-144 168a105 105 0 0 0 63-13 93 93 0 0 1-95 45c-116-10-220-164-220-164s21-4 50-8c36 45 115 132 202 140z m63-13a87 87 0 0 0-53-126 604 604 0 0 0-210 0l-12-15a607 607 0 0 1 222-30c85 8 126 121 53 171z m-630 13a105 105 0 0 1-62-13 93 93 0 0 0 92 45c117-10 220-164 220-164s-20-4-50-8c-34 45-113 132-200 140z m-62-13a87 87 0 0 1 53-126 604 604 0 0 1 210 0l12-15a607 607 0 0 0-221-30c-86 8-128 121-54 171z m368-96s24 158 174 191l-24-25 45-10a230 230 0 0 1-155-155z m-45 0s-26 158-172 191l24-25-45-10a230 230 0 0 0 156-155z" horiz-adv-x="907" />

<glyph glyph-name="promotion_stroke" unicode="&#xe803;" d="M832-150h-763a43 43 0 0 0-43 42v451h361v-432h126v433h361v-451a43 43 0 0 0-42-43z m-287 32h287a11 11 0 0 1 11 10v420h-300z m-487 430v-420a11 11 0 0 1 11-10h287v430z m329 38h-346a41 41 0 0 0-41 44v163a41 41 0 0 0 41 41h346z m-346 216a9 9 0 0 1-9-9v-163a10 10 0 0 1 9-10h315v182z m818-216h-346v248h346a42 42 0 0 0 41-41v-163a42 42 0 0 0-41-44z m-314 32h314a10 10 0 0 1 9 9v166a10 10 0 0 1-9 9h-314z m-9 212l-9 0c-29 4-50 8-50 8l-23 4 13 20c4 7 105 154 223 164a105 105 0 0 0 105-50l27-50-50 29a85 85 0 0 1-50 10h0c-78-7-150-91-181-127z m-27 36l13 0c40 50 112 122 193 131a88 88 0 0 1-23 0c-78-8-152-91-183-131z m186-80a619 619 0 0 0-183 32l-21 7 31 39 9 0a519 519 0 0 1 194 0 68 68 0 0 1 42 98l-31 57 54-36a97 97 0 0 0 40-108 114 114 0 0 0-100-86q-17-3-35-3z m-62 36a400 400 0 0 1 95 0 83 83 0 0 1 72 60 100 100 0 0 1 0 12l0-3a100 100 0 0 0-65-59 342 342 0 0 0-102-10z m-269 8l-5 6c-29 37-104 121-182 128a85 85 0 0 1-50-10l-50-29 27 50a106 106 0 0 0 106 50c117-10 218-157 222-164l14-20-24-4s-20-4-50-8z m-179 165c81-9 153-83 193-131l14 0c-31 40-106 123-184 130a87 87 0 0 1-23 1z m20-209q-18 0-36 0a114 114 0 0 0-100 86 100 100 0 0 0 42 109l53 36-30-57a69 69 0 0 1-4-57 69 69 0 0 1 45-40 519 519 0 0 1 194 0l9 0 31-39-21-8a623 623 0 0 0-183-30z m-105 108a100 100 0 0 1 0-12 82 82 0 0 1 72-62 400 400 0 0 1 95 0 347 347 0 0 0-100 10 103 103 0 0 0-67 61s0 2 0 3z m350-35l3 19c4 8 31 163 179 197l50 11-39-41 87-19-72-16a200 200 0 0 1-137-138l-4-11z m136 165a221 221 0 0 1-94-132h4a240 240 0 0 0 107 129z m-139-165l-66 0-3 11a204 204 0 0 1-138 140l-71 16 87 19-40 41 50-11a247 247 0 0 0 178-197z m-43 33h4a221 221 0 0 1-96 132l-15-3a240 240 0 0 0 107-129z m109-90h-125a46 46 0 0 0-46 45v15a46 46 0 0 0 46 46h125a46 46 0 0 0 45-46v-15a46 46 0 0 0-45-45z m-125 74a15 15 0 0 1-14-14v-15a15 15 0 0 1 14-14h125a14 14 0 0 1 13 14v15a14 14 0 0 1-13 14z m99 0h-74a33 33 0 0 0-33 34v9a33 33 0 0 0 33 33h74a34 34 0 0 0 33-33v-9a34 34 0 0 0-33-34z m-74 44l0-10 75 0 0 10s0 0 0 0z" horiz-adv-x="900" />

<glyph glyph-name="qq" unicode="&#xe804;" d="M889 271a329 329 0 0 1-38 77c-7 9-12 16-17 23s-14 14-18 19 4 32 4 42 0 30 0 33a285 285 0 0 1-33 53 7 7 0 0 1 0 3 339 339 0 0 1-75 208c-7 8-14 17-22 25a322 322 0 0 1-383 57 329 329 0 0 1-75-57 290 290 0 0 1-22-25 337 337 0 0 1-74-213v-3a17 17 0 0 1-17-4 49 49 0 0 1-14-45v0a35 35 0 0 1-7-8v0a24 24 0 0 0 0-7c-3 0-3-5-3-7a152 152 0 0 1 0-39l0 0a10 10 0 0 0 0-6 42 42 0 0 1 2-13c-4-5-11-11-18-19s-11-13-17-21a311 311 0 0 1-47-98 317 317 0 0 1-15-120 114 114 0 0 1 10-45 17 17 0 0 1 9-7c11 0 29 10 59 46 6 7 12 15 18 24h0a329 329 0 0 1 71-121c-9-2-58-18-68-49a8 8 0 0 1 0-5 14 14 0 0 1 6-4 33 33 0 0 1-14-13 38 38 0 0 1 0-35 87 87 0 0 1 27-31 171 171 0 0 1 17-12 240 240 0 0 1 120-26 425 425 0 0 1 74 7 166 166 0 0 1 90 45l4 5c9 0 18 0 27 0a444 444 0 0 1 49 3l5-6a166 166 0 0 1 91-46 429 429 0 0 1 71-6 242 242 0 0 1 120 27 127 127 0 0 1 17 11 87 87 0 0 1 27 32 40 40 0 0 1 0 34 36 36 0 0 1-14 13l6 4a8 8 0 0 1 0 6c-11 33-67 49-69 49l-18 7a322 322 0 0 1 68 124v0c6-9 12-18 17-25 28-38 46-50 56-49a15 15 0 0 1 11 6 101 101 0 0 1 11 45 317 317 0 0 1-9 137z" horiz-adv-x="905" />

<glyph glyph-name="recharge" unicode="&#xe805;" d="M340 108a276 276 0 0 0 129 233c-16 3-38 6-63 8a132 132 0 0 1 60 15 162 162 0 0 1 23 106 163 163 0 0 1-23 105 132 132 0 0 1-61 16 225 225 0 0 1 96 19 162 162 0 0 1 24 105 163 163 0 0 1-23 106c-11 13-106 23-222 23s-211-10-221-23a163 163 0 0 1-23-106 162 162 0 0 1 23-105 132 132 0 0 1 60-16 233 233 0 0 1-96-19 163 163 0 0 1-23-105 162 162 0 0 1 23-106 233 233 0 0 1 96-19 132 132 0 0 1-60-15 162 162 0 0 1-23-105 163 163 0 0 1 23-106 132 132 0 0 1 60-15 225 225 0 0 1-96-19 162 162 0 0 1-23-106c0-54 10-98 23-105s106-24 222-24 211 10 221 24l2 0a276 276 0 0 0-128 234z m233 67a36 36 0 0 1 8-25 55 55 0 0 1 28-15v79a42 42 0 0 1-26-13 37 37 0 0 1-10-26z m52-71v-86a45 45 0 0 1 39 45 38 38 0 0 1-8 25 68 68 0 0 1-31 16z m-9 262a257 257 0 1 1 257-258 257 257 0 0 1-257 258z m-230-205a9 9 0 1 0 7-12 9 9 0 0 0-7 12z m-5-62a10 10 0 0 0 9 9 9 9 0 0 0 9-9 9 9 0 0 0-9-9 10 10 0 0 0-9 9z m21-67a10 10 0 0 0-11 8 10 10 0 0 0 7 11 10 10 0 0 0 11-7 10 10 0 0 0-7-12z m9 174a10 10 0 0 0-3 14 10 10 0 0 0 16-9 9 9 0 0 0-13-5z m18-225a10 10 0 0 0-9 16 10 10 0 0 0 13-4 9 9 0 0 0-4-14z m228 352a10 10 0 0 0 11 7 10 10 0 0 0 7-11 10 10 0 0 0-11-7 10 10 0 0 0-7 10z m-50 12a9 9 0 0 0 9-9 10 10 0 0 0-9-9 9 9 0 0 0-9 9 9 9 0 0 0 9 8z m-164-90a10 10 0 0 0 0 13 10 10 0 0 0 13 0 10 10 0 0 0-13-13z m26-320a10 10 0 0 0-13 0 9 9 0 0 0 0 13 10 10 0 0 0 13 0 9 9 0 0 0 0-13z m18 360a10 10 0 0 0 3 13 9 9 0 0 0 13-4 9 9 0 0 0-3-12 9 9 0 0 0-13 3z m32-392a9 9 0 0 0-12-3 9 9 0 0 0-4 12 9 9 0 0 0 13 4 9 9 0 0 0 3-12z m28 431a9 9 0 0 0 11-7 10 10 0 0 0-7-11 9 9 0 0 0-11 6 10 10 0 0 0 7 12z m28-451a10 10 0 1 0-6 12 10 10 0 0 0 6-10z m50-12a9 9 0 1 0 9 9 9 9 0 0 0-9-7z m61 10a9 9 0 1 0 7 12 9 9 0 0 0-7-10z m31 418a10 10 0 0 0-3 13 9 9 0 1 0 15-9 10 10 0 0 0-12-2z m25-392a10 10 0 0 0-13 3 9 9 0 0 0 16 10 9 9 0 0 0-3-11z m21 360a10 10 0 1 0 13 0 10 10 0 0 0-11 1z m26-318a10 10 0 1 0 0 14 10 10 0 0 0 0-14z m41 237a9 9 0 0 0 12-6 10 10 0 1 0-12 6z m-30 40a10 10 0 0 0 3 13 10 10 0 1 0-3-13z m25-225a10 10 0 0 0-15-7 10 10 0 0 0 10 17 9 9 0 0 0 5-12z m21 58a9 9 0 0 0-17 5 10 10 0 0 0 11 6 9 9 0 0 0 6-14z m-4 52a9 9 0 0 0-9 9 10 10 0 1 0 19 0 9 9 0 0 0-10-12z" horiz-adv-x="900" />

<glyph glyph-name="register" unicode="&#xe806;" d="M466 96a277 277 0 0 0 69 184h0l0 36 8 9c12 14 13 49 19 60a92 92 0 0 1 34 53c12 42 27 99 12 103a19 19 0 0 1-13-7 596 596 0 0 1 10 76 376 376 0 0 1-23 154 193 193 0 0 1-63 55 257 257 0 0 1-40 22 461 461 0 0 1-185 0 143 143 0 0 1-92-68 443 443 0 0 1-27-163c0-15 11-40 13-56a111 111 0 0 1 4-14l-5 0c-16 0 0-61 11-103a95 95 0 0 1 31-53c6-9 7-45 19-60a57 57 0 0 0 9-9l0-29 3-16c0 4-5 7-6 0-6-17-11-33-16-50l0 0c-6 4-12 0-19-10a190 190 0 0 0-75-54v0l0 0h0l-10-2-134-54v-249h609a281 281 0 0 0-143 245z m283 245a246 246 0 1 1 245-245 246 246 0 0 1-245 245z m141-272h-115v-114h-53v114h-115v53h115v115h53v-115h115z" horiz-adv-x="994" />

<glyph glyph-name="register_fill" unicode="&#xe807;" d="M431 389a231 231 0 1 1-231 231 231 231 0 0 1 231-231z m0-62c-238 0-431-158-431-355a294 294 0 0 1 20-106q165-16 342-16a3568 3568 0 0 1 485 32 286 286 0 0 1 15 90c0 197-193 355-431 355z m550 100h-100v100a0 0 90 0 1-3 0h-78s0 0 0 0v-100h-100a0 0 90 0 1-2-2v-75a3 3 0 0 1 2 0h100v-100l0 0h76a0 0 90 0 1 3 0v100h100s0 0 0 0v77a0 0 90 0 1 4 2z" horiz-adv-x="985" />

<glyph glyph-name="register_stroke" unicode="&#xe808;" d="M366-150c-111 0-222 6-332 16l-10 0-4 10a314 314 0 0 0-20 109c0 198 194 359 433 359s433-160 433-359a309 309 0 0 0-15-92l-4-10-10 0a3425 3425 0 0 0-471-33z m-319 47a3514 3514 0 0 1 776 15 284 284 0 0 1 10 73c0 181-179 327-400 327s-401-146-401-327a275 275 0 0 1 15-88z m819 335h-74a19 19 0 0 0-18 18v82h-82a18 18 0 0 0-19 19v73a18 18 0 0 0 19 19h82v82a19 19 0 0 0 18 19h74a19 19 0 0 0 18-19v-82h83a18 18 0 0 0 18-19v-73a18 18 0 0 0-18-19h-83v-82a19 19 0 0 0-18-18z m-60 32h46v101h101v46h-101v101h-46v-101h-98v-46h101z m-373 107a240 240 0 1 0 239 240 240 240 0 0 0-239-240z m0 447a207 207 0 1 1 207-207 207 207 0 0 1-207 207z" horiz-adv-x="985" />

<glyph glyph-name="reward" unicode="&#xe809;" d="M635 553l59 199c-44 131-469 131-498 0l60-199a579 579 0 0 1-256-443c0-211 200-260 445-260s446 49 446 260a579 579 0 0 1-256 443z m-61-315v-56h-89v-45h89v-54h-89v-79h-82v79h-91v54h89v45h-89v56h75l-98 189h89l72-169h0c2 6 6 15 11 27l58 142h83l-101-189z" horiz-adv-x="891" />

<glyph glyph-name="roulette" unicode="&#xe80a;" d="M500 470a120 120 0 1 1 120-120 120 120 0 0 1-120 120z m0 380a500 500 0 1 1 500-500 500 500 0 0 1-500 500z m309-812l-194 197a308 308 0 0 0-72-42l73-267h-231l72 267a308 308 0 0 0-72 42l-194-197-116 200 268 70a261 261 0 0 0-6 42 261 261 0 0 0 6 42l-268 70 116 200 194-196a308 308 0 0 0 72 41l-72 267h231l-73-267a308 308 0 0 0 72-41l194 196 116-200-267-70a261 261 0 0 0 5-41 261 261 0 0 0-5-42l267-70z" horiz-adv-x="1000" />

<glyph glyph-name="search" unicode="&#xe80b;" d="M691 270a374 374 0 1 1-78-88l315-315a58 58 0 0 1 41-17 59 59 0 0 1 42 100z m-315-55a257 257 0 1 0 257 257 257 257 0 0 0-257-257z" horiz-adv-x="1028" />

<glyph glyph-name="service" unicode="&#xe80c;" d="M1000 394h0a481 481 0 0 1-328 435 453 453 0 0 1-137 21h-8a474 474 0 0 1-457-456h0l-17-13a190 190 0 0 1 123-324h12v214a458 458 0 0 1 343 130 583 583 0 0 1 104 119 508 508 0 0 1 36-40 541 541 0 0 1 208-133v-218a412 412 0 0 0-258-183v8h-140v-104h138v43a460 460 0 0 1 270 164 190 190 0 0 1 107 337z m-603-132a53 53 0 1 1 53-53 53 53 0 0 1-53 53z m327-53a53 53 0 1 1-53-54 53 53 0 0 1 53 57z" horiz-adv-x="1069" />

<glyph glyph-name="vip" unicode="&#xe80d;" d="M151 790l-138-170h276z m210-170h353l-176 176z m177 227l215-215 173 215 0 4h-773l0-3 170-213z m525-227l-138 170-138-170z m-300-42l-225-710-225 710h-313l538-728 538 728z m-225-589l187 592h-376z" horiz-adv-x="1076" />

<glyph glyph-name="wechat" unicode="&#xe80e;" d="M1400 175c0 180-191 325-425 325s-425-145-425-325 190-325 425-325a550 550 0 0 1 140 18 1181 1181 0 0 1 186-17c-49 0-74 61-74 61h0a309 309 0 0 1 173 263z m-600 38a76 76 0 1 0 75 77 75 75 0 0 0-75-77z m275 0a76 76 0 1 0 75 77 75 75 0 0 0-75-77z m-100 312h19c-36 185-243 325-494 325-276 0-500-171-500-382a365 365 0 0 1 210-310h0s-30-70-87-70a1516 1516 0 0 1 219 20 634 634 0 0 1 160-20l40 0a284 284 0 0 0-17 87c0 193 201 350 450 350z m-270 163a88 88 0 1 0-88-88 88 88 0 0 0 88 88z m-323-176a88 88 0 1 0 88 88 88 88 0 0 0-88-88z" horiz-adv-x="1400" />

<glyph glyph-name="app" unicode="&#xe80f;" d="M330-54h-30a8 8 0 0 1-7-7v-29a8 8 0 0 1 7-7h30a7 7 0 0 1 7 7v29a7 7 0 0 1-7 7z m0-33a6 6 0 0 0-5-5h-20a5 5 0 0 0-5 5v23a5 5 0 0 0 5 5h22a6 6 0 0 0 5-5z m242 937h-512a62 62 0 0 1-60-62v-876a62 62 0 0 1 60-62h512a62 62 0 0 1 60 62v876a62 62 0 0 1-60 62z m-256-975a50 50 0 1 0 48 50 50 50 0 0 0-48-50z m263 134h-526v791h526z" horiz-adv-x="632" />

<glyph glyph-name="arena" unicode="&#xe810;" d="M936 538l64 312-312-64-106-127 205-245z m-590-162l-120-140-35 35a57 57 0 0 1-76-76l61-61-154-156a75 75 0 0 1 106-106l155 156 62-61a54 54 0 0 1 76 76l-35 35 158 133z m764-396l-156 156 61 61a57 57 0 0 1-76 76l-35-35-460 548-312 64 64-312 550-460-35-35a54 54 0 0 1 76-76l62 61 156-156a75 75 0 0 1 106 106z" horiz-adv-x="1132" />

<glyph glyph-name="cancel" unicode="&#xe811;" d="M644 352l353 353a6 6 0 0 1 0 9l-133 136a6 6 0 0 1-9 0l-357-356-353 356a6 6 0 0 1-9 0l-136-136a6 6 0 0 1 0-9l356-353-356-357a6 6 0 0 1 0-9l136-133a6 6 0 0 1 9 0l353 353 357-353a6 6 0 0 1 9 0l133 133a6 6 0 0 1 0 9z" horiz-adv-x="1000" />

<glyph glyph-name="contact_fill" unicode="&#xe812;" d="M891 16c-15 28-167 126-244 117-10 0-29-31-29-31h0c-19-25-32-58-43-60s-35 29-64 59l-259 260c-31 29-62 49-60 64s35 24 60 43h0s29 18 31 29c9 76-89 229-117 245-11 7-41-4-41-4h0a191 191 0 0 1-96-82l-16-31a140 140 0 0 1 8-131 2112 2112 0 0 1 269-357 2122 2122 0 0 1 356-267 141 141 0 0 1 132-7l30 18a192 192 0 0 1 80 96s9 28 3 39z m136 834h-542a50 50 0 0 1-50-50v-351a50 50 0 0 1 50-50h117a192 192 0 0 0-31-90 176 176 0 0 1 143 90h312a50 50 0 0 1 51 50v351a50 50 0 0 1-50 50z m-438-284a54 54 0 1 0 54 54 54 54 0 0 0-54-54z m170 0a54 54 0 1 0 54 54 54 54 0 0 0-54-54z m169 0a54 54 0 1 0 54 54 54 54 0 0 0-54-54z" horiz-adv-x="1077" />

<glyph glyph-name="contact_stroke" unicode="&#xe813;" d="M710-150a145 145 0 0 0-80 23 2082 2082 0 0 0-347 260 2044 2044 0 0 0-261 348 152 152 0 0 0-7 144l15 29a202 202 0 0 0 101 84h0a69 69 0 0 0 54 4c33-18 130-173 120-252 0-16-21-30-36-40h0a303 303 0 0 0-30-20 178 178 0 0 1-19-12 320 320 0 0 1 25-23c8-8 17-15 26-24l253-252c9-10 16-19 24-27a230 230 0 0 1 23-25 143 143 0 0 1 12 19 290 290 0 0 0 19 29v0c10 16 25 35 40 37 79 9 233-87 253-120h0a73 73 0 0 0-4-54 199 199 0 0 0-85-101l-29-16a139 139 0 0 0-67-11z m-542 865a93 93 0 0 1-25-7 171 171 0 0 1-84-69l-16-30a122 122 0 0 1 8-113 2083 2083 0 0 1 252-341 2041 2041 0 0 1 342-252 121 121 0 0 1 112-8l30 16a167 167 0 0 1 73 79 79 79 0 0 1 6 28c-14 22-155 111-220 104l-5-7h0l-13-16a260 260 0 0 1-19-30c-11-18-19-32-33-34s-34 13-54 37c-7 8-14 16-22 24l-253 253c-9 8-17 16-25 22-23 21-40 35-37 54s17 21 36 34a253 253 0 0 1 32 18l16 13v0l6 6c7 64-84 206-106 218z m403-421h0l-28 0 14 23a198 198 0 0 1 25 63h-96a64 64 0 0 0-64 66v339a64 64 0 0 0 64 65h525a65 65 0 0 0 65-65v-339a65 65 0 0 0-65-65h-294a186 186 0 0 0-146-87z m-85 524a32 32 0 0 1-31-33v-339a32 32 0 0 1 32-33h130v-18a186 186 0 0 0-16-66 167 167 0 0 1 96 75l4 7h310a32 32 0 0 1 31 35v339a32 32 0 0 1-31 33z m429-275a66 66 0 1 0 66 66 66 66 0 0 0-66-66z m0 101a34 34 0 1 1 33-33 34 34 0 0 1-33 32z m-164-101a66 66 0 1 0 66 66 66 66 0 0 0-66-66z m0 101a34 34 0 1 1 33-33 34 34 0 0 1-33 32z m-164-101a66 66 0 1 0 0 132 66 66 0 0 0 0-132z m0 101a34 34 0 1 1 33-33 33 33 0 0 1-33 32z" horiz-adv-x="1074" />

<glyph glyph-name="detection_fill" unicode="&#xe814;" d="M884 734h-767v-768h767z m-334-434l-371-271 274 369h0l368 273z m350 550h-800a100 100 0 0 1-100-100v-800a100 100 0 0 1 100-100h800a100 100 0 0 1 100 100v800a100 100 0 0 1-100 100z m16-917h-833v834h834z" horiz-adv-x="1000" />

<glyph glyph-name="detection_stroke" unicode="&#xe815;" d="M887 850h-775a113 113 0 0 1-112-112v-775a113 113 0 0 1 112-113h775a113 113 0 0 1 113 113v775a113 113 0 0 1-113 112z m81-887a80 80 0 0 0-81-81h-775a80 80 0 0 0-80 81v775a80 80 0 0 0 80 80h775a80 80 0 0 0 81-80z m-513 432l-265-354 356 263 264 354-355-263z m74-74l-232-174 175 231z" horiz-adv-x="1000" />

<glyph glyph-name="dl_fill" unicode="&#xe816;" d="M434 113a319 319 0 0 0 319 318h20v419h-773v-1000h573a319 319 0 0 0-139 263z m66 685l232-231h-232z m-377-66h308v-165h-308z m0-260h364v-68h-364z m280-522h-280v69h280z m0 114h-280v68h280z m0 113h-280v68h280z m28 114h-308v68h308z m322 79a258 258 0 1 1 257-257 258 258 0 0 1-257 257z m0-424l-139 163h100v170h79v-170h100z" horiz-adv-x="1010" />

<glyph glyph-name="dl_stroke" unicode="&#xe817;" d="M506 484h-388v-98h388z m-33-66h-321v34h319z m-24 318h-331v-193h331z m-32-160h-265v127h265z m-299-629h276v98h-276z m30 66h217v-34h-217z m303 108a293 293 0 0 0 292 292l18 0 17 0v437h-778v-1000h622l-43 30a292 292 0 0 0-124 241z m296 697v-260l-260 260z m-63-242h-169v168z m-652-694v936h451v-275h264v-97h-3a324 324 0 0 1-220-563z m86 285h276v98h-276z m30 65h217v-33h-217z m-30-175h276v98h-276z m30 66h217v-34h-217z m303 252h-333v-98h331z m-32-65h-267v33h265z m382-176v163h-111v-164h-115l169-198 170 198z m-152-32h77v163h44v-164h77l-101-117z m101 284a265 265 0 1 1 261-265 265 265 0 0 1-267 264z m0-498a233 233 0 1 0 233 234 233 233 0 0 0-239-233z" horiz-adv-x="1010" />

<glyph glyph-name="gotop" unicode="&#xe818;" d="M640 850l-640-438v-224l640 438 640-437v223z m-640-842v-158l640 438 640-437v157l-640 437z" horiz-adv-x="1280" />

<glyph glyph-name="home_fill" unicode="&#xe819;" d="M1147 412l-215 164v205a27 27 0 0 1-27 27h-100a27 27 0 0 1-27-27v-85l-204 154-574-438h171v-535a28 28 0 0 1 29-27h256v327a27 27 0 0 0 27 27h181a28 28 0 0 0 27-27v-327h259a27 27 0 0 1 27 27v534h171z" horiz-adv-x="1147" />

<glyph glyph-name="home_stroke" unicode="&#xe81a;" d="M575 808l182-139 52-41v146h89v-214l13-10 137-105h-108l0-34v-528h-216v294a60 60 0 0 1-60 60h-181a60 60 0 0 1-60-60v-294h-219v527l0 35h-106l477 363m0 42l-575-438h171v-535a27 27 0 0 1 27-27h258v327a27 27 0 0 0 27 27h181a27 27 0 0 0 27-27v-327h257a27 27 0 0 1 27 27v535h174l-217 164v205a28 28 0 0 1-28 27h-101a28 28 0 0 1-28-27v-88l-200 157z" horiz-adv-x="1147" />

<glyph glyph-name="loading" unicode="&#xe81b;" d="M148 452a74 74 0 1 1-74-74 74 74 0 0 1 74 74z m102 331a74 74 0 1 1 74-73 73 73 0 0 1-74 73z m-102-563a98 98 0 1 1 98-98 98 98 0 0 1-100 97z m300-123a123 123 0 1 1 123-123 122 122 0 0 1-124 122z m310 99a138 138 0 1 1 139-139 138 138 0 0 1-140 137z m143 268a123 123 0 1 1 123-122 123 123 0 0 1-123 122z m-102 74a98 98 0 1 1-98 99 98 98 0 0 1 96-99z m-254 312a74 74 0 1 1 74-74 74 74 0 0 1-74 74z" horiz-adv-x="1024" />

<glyph glyph-name="member" unicode="&#xe81c;" d="M431 389a231 231 0 1 1-231 231 231 231 0 0 1 231-231z m0-62c-238 0-431-158-431-355a294 294 0 0 1 20-106q165-16 342-16a3568 3568 0 0 1 485 32 288 288 0 0 1 15 90c0 197-193 355-431 355z" horiz-adv-x="862" />

<glyph glyph-name="mg" unicode="&#xe81d;" d="M500 850a500 500 0 0 1-474-658 531 531 0 0 1 68 92c42 66 83 135 118 205a1331 1331 0 0 0 113 198c22 29 64 59 72 6 19-133-46-350-11-521 7-36 29-165 89-95 89 105 134 238 192 363a134 134 0 0 0 36 52 32 32 0 0 0 22 8c19 0 26-24 29-42a1518 1518 0 0 1 32-162 419 419 0 0 1 72-137c5-7 13-15 9-22-26-40-122 155-127 163a39 39 0 0 1-20 18c-18 5-33-15-42-31-31-59-63-118-94-176a246 246 0 0 0-108-122c-47-21-97-16-135 58s-35 317-35 328 0 87-45 0c-37-66-133-222-180-296a500 500 0 1 1 419 771z" horiz-adv-x="1000" />

<glyph glyph-name="news" unicode="&#xe81e;" d="M501 844l-263-260a21 21 0 0 0-14-5h-204a20 20 0 0 1-20-20v-416a20 20 0 0 1 20-21h204a21 21 0 0 0 14-6l263-260a20 20 0 0 1 34 15v959a20 20 0 0 1-34 14z m406-13a31 31 0 0 1-43 11 31 31 0 0 1-11-43 861 861 0 0 0 125-449 866 866 0 0 0-125-449 32 32 0 0 1 11-43 37 37 0 0 1 16-4 31 31 0 0 1 27 15 928 928 0 0 1 133 481 924 924 0 0 1-133 481z m-99-98a31 31 0 1 1-52-31 728 728 0 0 0 0-704 31 31 0 0 1 12-42 35 35 0 0 1 15-5 31 31 0 0 1 28 16 785 785 0 0 1 99 383 787 787 0 0 1-102 383z m-100-101a31 31 0 0 1-42 14 32 32 0 0 1-14-42 567 567 0 0 0 60-254 575 575 0 0 0-59-255 31 31 0 0 1 14-41 34 34 0 0 1 14-3 32 32 0 0 1 28 17 645 645 0 0 1 65 282 632 632 0 0 1-66 282z" horiz-adv-x="1040" />
</font>
</defs>
</svg>
